<?xml version="1.0" encoding="utf-8"?>
<!-- Generator: Adobe Illustrator 19.2.1, SVG Export Plug-In . SVG Version: 6.00 Build 0)  -->
<svg version="1.1" id="Слой_1" xmlns="http://www.w3.org/2000/svg" xmlns:xlink="http://www.w3.org/1999/xlink" x="0px" y="0px"
	 viewBox="0 0 91.381 92.358" style="enable-background:new 0 0 91.381 92.358;" xml:space="preserve">
<g>
	<g>
		<g>
			<g>
				<g>
					<path style="fill:#1B5E71;" d="M45.692,92.358l-0.31-0.109c-0.467-0.16-11.541-4.107-22.759-16.393
						C12.304,64.553,0,43.763,0,8.902V8.311l0.535-0.258C0.703,7.973,17.612,0,44.733,0l0.965,0.004L46.649,0
						c27.119,0,44.032,7.973,44.196,8.053l0.535,0.258v0.591c0,34.861-12.3,55.651-22.618,66.953
						C57.543,88.141,46.467,92.088,46,92.248L45.692,92.358z M1.883,9.51c0.144,33.893,12.094,54.085,22.129,65.075
						c9.879,10.817,19.818,15.045,21.681,15.772c1.864-0.732,11.872-4.998,21.753-15.851C77.447,63.518,89.356,43.342,89.499,9.511
						c-3.046-1.319-18.857-7.628-42.85-7.628l-0.951,0.004l-0.965-0.004C20.738,1.882,4.928,8.191,1.883,9.51z"/>
				</g>
			</g>
		</g>
		<g>
			<g>
				<g>
					<path style="fill:#1B5E71;" d="M45.692,20.114c25.894-0.177,42.123,6.149,43.479,7.429c0.812-5.723,1.269-11.918,1.269-18.641
						c0,0-16.956-8.147-44.747-7.957C17.901,0.755,0.943,8.902,0.943,8.902c0,6.723,0.458,12.918,1.27,18.641
						C3.569,26.263,19.795,19.937,45.692,20.114z"/>
				</g>
			</g>
		</g>
		<g>
			<g>
				<g>
					<g>
						<polygon style="fill:#FFFFFF;" points="84.086,14.221 83.972,15.865 85.26,16.89 83.663,17.287 83.085,18.829 82.212,17.432 
							80.568,17.359 81.629,16.099 81.188,14.512 82.714,15.129 						"/>
					</g>
				</g>
			</g>
		</g>
		<g>
			<g>
				<g>
					<g>
						<polygon style="fill:#FFFFFF;" points="7.297,14.221 7.411,15.865 6.123,16.89 7.723,17.287 8.3,18.829 9.171,17.432 
							10.818,17.359 9.758,16.099 10.197,14.512 8.67,15.129 						"/>
					</g>
				</g>
			</g>
		</g>
		<g>
			<g>
				<g>
					<path style="fill:#FFFFFF;" d="M19.787,7.624c0.182,1.014,0.357,2.03,0.535,3.045c-0.863,0.15-1.726,0.311-2.587,0.477
						c-0.078-0.407-0.158-0.815-0.238-1.222c-0.738,0.143-1.48,0.293-2.218,0.449c0.166,0.795,0.333,1.588,0.5,2.382
						c0.915-0.192,1.831-0.375,2.748-0.551c0.116,0.61,0.23,1.218,0.349,1.828c-0.906,0.172-1.81,0.352-2.712,0.543
						c0.122,0.58,0.243,1.161,0.365,1.739c0.481-0.102,0.956-0.199,1.437-0.295c0.123,0.609,0.242,1.217,0.364,1.825
						c-1.724,0.344-3.443,0.722-5.156,1.133c-0.145-0.604-0.29-1.207-0.435-1.81c0.29-0.069,0.579-0.138,0.869-0.205
						c-0.459-1.971-0.92-3.942-1.38-5.912c-0.304,0.07-0.604,0.142-0.906,0.214c-0.144-0.599-0.287-1.198-0.432-1.796
						C13.842,8.761,16.81,8.146,19.787,7.624z"/>
				</g>
			</g>
			<g>
				<g>
					<path style="fill:#FFFFFF;" d="M25.362,6.755c0.085,0.611,0.167,1.22,0.248,1.83c-0.304,0.042-0.612,0.084-0.917,0.127
						c0.287,2.005,0.57,4.008,0.856,6.011c0.293-0.041,0.588-0.083,0.881-0.123c0.084,0.616,0.166,1.23,0.25,1.845
						c-1.551,0.21-3.099,0.448-4.644,0.713c-0.104-0.612-0.207-1.223-0.313-1.834c0.299-0.051,0.594-0.1,0.891-0.15
						c-0.328-1.996-0.656-3.994-0.984-5.99c-0.31,0.051-0.621,0.102-0.933,0.156c-0.104-0.607-0.206-1.213-0.309-1.82
						C22.042,7.235,23.702,6.981,25.362,6.755z"/>
				</g>
			</g>
			<g>
				<g>
					<path style="fill:#FFFFFF;" d="M36.298,9.328c-0.724,0.045-1.444,0.095-2.164,0.15c-0.047-0.595-0.093-1.19-0.138-1.786
						c-0.418,0.033-0.834,0.066-1.25,0.102c0.172,2.017,0.347,4.033,0.52,6.049c0.394-0.034,0.787-0.065,1.184-0.096
						c0.047,0.618,0.096,1.237,0.145,1.854c-1.747,0.136-3.491,0.303-5.232,0.505c-0.07-0.616-0.143-1.232-0.213-1.847
						c0.388-0.046,0.775-0.09,1.166-0.131c-0.216-2.013-0.434-4.024-0.649-6.037c-0.426,0.046-0.851,0.094-1.277,0.142
						c0.068,0.594,0.139,1.187,0.206,1.779c-0.719,0.083-1.438,0.172-2.154,0.267c-0.156-1.201-0.316-2.404-0.476-3.606
						c3.361-0.443,6.732-0.768,10.108-0.978C36.146,6.907,36.222,8.118,36.298,9.328z"/>
				</g>
			</g>
			<g>
				<g>
					<path style="fill:#FFFFFF;" d="M47.23,7.238c-0.037,2.657-0.077,5.315-0.114,7.973c-1.014-0.015-2.022-0.019-3.035-0.011
						c-1.212-1.767-2.471-3.518-3.775-5.252c0.039,1.175,0.078,2.349,0.117,3.523c0.367-0.012,0.736-0.024,1.102-0.032
						c0.017,0.601,0.031,1.202,0.047,1.803c-1.444,0.038-2.888,0.099-4.327,0.182c-0.038-0.601-0.071-1.202-0.105-1.803
						c0.279-0.015,0.561-0.032,0.842-0.046c-0.106-2.053-0.213-4.107-0.318-6.161c-0.289,0.015-0.576,0.03-0.864,0.048
						c-0.036-0.602-0.068-1.202-0.103-1.802c1.444-0.084,2.891-0.145,4.334-0.186c1.284,1.677,2.524,3.369,3.719,5.078
						c-0.002-1.109-0.006-2.221-0.008-3.329c-0.338,0.001-0.677,0.003-1.017,0.005c-0.006-0.601-0.012-1.202-0.018-1.804
						c1.517-0.015,3.034-0.006,4.549,0.025c-0.012,0.602-0.025,1.203-0.037,1.804C47.887,7.249,47.559,7.243,47.23,7.238z"/>
				</g>
			</g>
			<g>
				<g>
					<path style="fill:#FFFFFF;" d="M58.117,5.995c-0.092,1.026-0.184,2.052-0.275,3.079c-0.85-0.076-1.701-0.144-2.552-0.204
						c0.029-0.414,0.057-0.829,0.089-1.242c-0.796-0.057-1.593-0.107-2.389-0.149c-0.033,0.642-0.066,1.285-0.102,1.927
						c0.932,0.051,1.862,0.111,2.794,0.179c-0.047,0.619-0.092,1.238-0.139,1.856c-0.92-0.067-1.838-0.127-2.757-0.177
						c-0.041,0.759-0.084,1.519-0.125,2.276c0.764,0.043,1.523,0.09,2.286,0.144c0.031-0.432,0.061-0.865,0.092-1.297
						c0.83,0.058,1.661,0.125,2.491,0.199c-0.094,1.05-0.188,2.1-0.281,3.149c-2.827-0.252-5.66-0.416-8.496-0.491
						c0.017-0.62,0.033-1.24,0.051-1.86c0.3,0.008,0.6,0.017,0.899,0.027c0.068-2.023,0.134-4.046,0.201-6.068
						c-0.314-0.012-0.628-0.02-0.941-0.028C48.98,6.7,48.997,6.084,49.013,5.47C52.051,5.55,55.087,5.725,58.117,5.995z"/>
				</g>
			</g>
			<g>
				<g>
					<path style="fill:#FFFFFF;" d="M58.286,12.289c0.895,0.084,1.789,0.177,2.683,0.278c-0.13,1.167,1.045,1.501,1.638,1.605
						c0.499,0.064,1.225,0.048,1.303-0.534c0.15-1.114-5.42-1.294-5.102-4.814c0.188-2.064,2.394-2.791,3.874-2.606
						c1.266,0.15,2.498,0.701,2.944,1.826c0.104-0.382,0.21-0.763,0.315-1.143c0.859,0.123,1.719,0.254,2.577,0.394
						c-0.187,1.155-0.373,2.31-0.561,3.466c-0.88-0.143-1.764-0.278-2.646-0.403c0.147-1.024-0.629-1.729-1.668-1.864
						c-0.432-0.056-1.054,0.121-1.114,0.608c-0.167,1.396,5.678,1.89,5.127,5.167c-0.36,2.151-2.521,2.594-4.182,2.374
						c-1.41-0.191-2.314-0.955-2.782-1.643c-0.094,0.351-0.186,0.701-0.275,1.053c-0.82-0.092-1.639-0.177-2.461-0.254
						C58.066,14.629,58.178,13.459,58.286,12.289z"/>
				</g>
			</g>
			<g>
				<g>
					<path style="fill:#FFFFFF;" d="M68.498,13.63c0.89,0.15,1.774,0.308,2.658,0.475c-0.214,1.154,0.938,1.574,1.522,1.722
						c0.494,0.099,1.221,0.139,1.344-0.436c0.23-1.1-5.328-1.69-4.752-5.178c0.338-2.045,2.597-2.606,4.063-2.314
						c1.257,0.245,2.445,0.884,2.813,2.038c0.132-0.371,0.265-0.743,0.399-1.114c0.85,0.186,1.7,0.38,2.55,0.582
						c-0.272,1.139-0.543,2.277-0.813,3.417c-0.872-0.208-1.747-0.408-2.62-0.598c0.221-1.01-0.503-1.773-1.534-1.983
						c-0.426-0.088-1.064,0.042-1.158,0.523c-0.268,1.378,5.543,2.306,4.752,5.533c-0.519,2.119-2.713,2.4-4.358,2.058
						c-1.397-0.295-2.243-1.125-2.662-1.845c-0.118,0.343-0.236,0.686-0.353,1.03c-0.812-0.152-1.624-0.297-2.442-0.435
						C68.106,15.948,68.301,14.789,68.498,13.63z"/>
				</g>
			</g>
		</g>
	</g>
	<g>
		<defs>
			<path id="SVGID_1_" d="M45.698,1.887l-0.965-0.004c-23.995,0-39.806,6.309-42.851,7.627
				c0.144,33.893,12.094,54.085,22.129,65.075c9.879,10.817,19.818,15.045,21.681,15.772c1.864-0.732,11.872-4.998,21.753-15.851
				C77.447,63.518,89.356,43.342,89.499,9.511c-3.046-1.319-18.857-7.628-42.85-7.628L45.698,1.887z"/>
		</defs>
		<clipPath id="SVGID_2_">
			<use xlink:href="#SVGID_1_"  style="overflow:visible;"/>
		</clipPath>
		<g style="clip-path:url(#SVGID_2_);">
			<g>
				<g>
					<path style="fill:#1B5E71;" d="M12.782,35.101V29.2c0-0.311,0.25-0.55,0.549-0.55c0.012,0,0.012,0,0.032,0c0,0,0,0,0.009,0
						h1.382c1.048,0,1.898,0.85,1.898,1.899c0,0.432-0.139,0.82-0.379,1.14c0.601,0.381,1.012,1.05,1.012,1.81
						c0,1.19-0.961,2.151-2.142,2.151h-1.77c-0.009,0-0.009-0.01-0.009-0.01c-0.021,0-0.021,0.01-0.032,0.01
						C13.032,35.651,12.782,35.401,12.782,35.101z M13.893,31.36h0.861c0.438,0,0.789-0.37,0.789-0.81c0-0.44-0.352-0.79-0.789-0.79
						h-0.861V31.36z M13.893,34.541h1.25c0.57-0.01,1.03-0.46,1.03-1.041c0-0.57-0.46-1.019-1.03-1.031h-1.25V34.541z"/>
				</g>
			</g>
			<g>
				<g>
					<path style="fill:#1B5E71;" d="M18.726,35.101V29.2c0-0.311,0.24-0.55,0.55-0.55h0.012c0,0,0,0,0.019,0h3.242
						c0.288,0,0.549,0.239,0.549,0.55c0,0.309-0.261,0.56-0.549,0.56h-2.712v1.831h2.331c0.299,0,0.549,0.259,0.549,0.55
						c0,0.31-0.25,0.559-0.549,0.559h-2.331v1.84h2.712c0.288,0,0.549,0.25,0.549,0.561c0,0.3-0.261,0.55-0.549,0.55h-3.242
						c-0.019,0-0.019-0.01-0.019-0.01l-0.012,0.01C18.966,35.651,18.726,35.401,18.726,35.101z"/>
				</g>
			</g>
			<g>
				<g>
					<path style="fill:#1B5E71;" d="M24.439,33.911c0.18-0.222,0.51-0.25,0.732-0.071c0.438,0.361,1.198,0.78,1.909,0.771
						c0.5,0,0.949-0.15,1.249-0.371c0.301-0.219,0.43-0.47,0.43-0.719c0-0.13-0.03-0.219-0.09-0.321
						c-0.061-0.1-0.149-0.2-0.299-0.299c-0.29-0.191-0.78-0.36-1.37-0.47h-0.02c-0.471-0.09-0.91-0.21-1.291-0.392
						c-0.38-0.18-0.71-0.429-0.931-0.779c-0.148-0.24-0.231-0.521-0.231-0.821c0-0.6,0.342-1.119,0.801-1.46
						c0.472-0.339,1.081-0.53,1.729-0.53c0.961,0,1.67,0.47,2.183,0.801c0.229,0.16,0.299,0.479,0.139,0.71
						c-0.15,0.239-0.471,0.31-0.711,0.149c-0.509-0.34-1-0.64-1.61-0.64c-0.449,0-0.85,0.141-1.119,0.34
						c-0.271,0.2-0.381,0.42-0.381,0.629c0,0.121,0.021,0.2,0.071,0.281c0.049,0.079,0.139,0.169,0.271,0.261
						c0.258,0.179,0.709,0.339,1.25,0.439h0.019c0.508,0.101,0.98,0.23,1.38,0.42c0.41,0.199,0.77,0.461,1,0.83
						c0.15,0.24,0.24,0.54,0.24,0.851c0,0.64-0.359,1.189-0.861,1.549c-0.489,0.361-1.138,0.57-1.849,0.57
						c-1.081-0.01-1.992-0.551-2.562-1C24.301,34.46,24.271,34.13,24.439,33.911z"/>
				</g>
			</g>
			<g>
				<g>
					<path style="fill:#1B5E71;" d="M35.464,29.76h-1.589v5.341c0,0.31-0.24,0.55-0.55,0.55c-0.302,0-0.552-0.24-0.552-0.55V29.76
						h-1.579c-0.31,0-0.55-0.26-0.55-0.56c0-0.311,0.24-0.55,0.55-0.55h4.269c0.3,0,0.549,0.239,0.549,0.55
						C36.013,29.5,35.764,29.76,35.464,29.76z"/>
				</g>
			</g>
		</g>
		<g style="clip-path:url(#SVGID_2_);">
			<g>
				<g>
					<path style="fill:#1B5E71;" d="M57.176,32.05c0.01-1.98,1.669-3.59,3.671-3.601c0.878,0,1.679,0.291,2.31,0.78
						c0.239,0.2,0.279,0.551,0.099,0.8c-0.198,0.25-0.567,0.29-0.8,0.11c-0.439-0.359-0.989-0.55-1.608-0.55
						c-0.691,0-1.332,0.281-1.803,0.721c-0.45,0.46-0.729,1.06-0.729,1.74c0,0.68,0.279,1.3,0.729,1.741
						c0.471,0.44,1.111,0.719,1.803,0.719c0.619,0,1.159-0.189,1.608-0.55c0.232-0.169,0.602-0.13,0.8,0.11
						c0.181,0.25,0.141,0.61-0.099,0.8c-0.631,0.49-1.432,0.78-2.31,0.78C58.845,35.651,57.186,34.041,57.176,32.05z"/>
				</g>
			</g>
			<g>
				<g>
					<path style="fill:#1B5E71;" d="M65.2,35.101V29.2c0-0.3,0.24-0.55,0.55-0.55c0.312,0,0.561,0.25,0.561,0.55v5.34h2.71
						c0.291,0,0.551,0.25,0.551,0.561c0,0.3-0.26,0.55-0.551,0.55h-3.24c-0.019,0-0.019,0-0.019,0c-0.012,0-0.012,0-0.012,0
						C65.44,35.651,65.2,35.401,65.2,35.101z"/>
				</g>
			</g>
			<g>
				<g>
					<path style="fill:#1B5E71;" d="M73.534,35.651c-1.61,0-2.89-1.3-2.89-2.891V29.2c0-0.311,0.239-0.55,0.549-0.55
						c0.301,0,0.559,0.239,0.559,0.55v3.56c0,0.981,0.802,1.78,1.782,1.78c0.99,0,1.778-0.799,1.778-1.78V29.2
						c0-0.311,0.252-0.55,0.561-0.55c0.31,0,0.551,0.239,0.551,0.55v3.56C76.424,34.351,75.135,35.651,73.534,35.651z"/>
				</g>
			</g>
			<g>
				<g>
					<path style="fill:#1B5E71;" d="M78.779,35.101V29.2c0-0.311,0.249-0.55,0.55-0.55c0.009,0,0.009,0,0.029,0c0,0,0,0,0.01,0h1.38
						c1.051,0,1.901,0.85,1.901,1.899c0,0.432-0.141,0.82-0.381,1.14c0.602,0.381,1.01,1.05,1.01,1.81
						c0,1.19-0.957,2.151-2.14,2.151h-1.771c-0.01,0-0.01-0.01-0.01-0.01c-0.021,0-0.021,0.01-0.029,0.01
						C79.028,35.651,78.779,35.401,78.779,35.101z M79.89,31.36h0.858c0.439,0,0.791-0.37,0.791-0.81c0-0.44-0.352-0.79-0.791-0.79
						H79.89V31.36z M79.89,34.541h1.249c0.57-0.01,1.032-0.46,1.032-1.041c0-0.57-0.462-1.019-1.032-1.031H79.89V34.541z"/>
				</g>
			</g>
		</g>
		<g style="clip-path:url(#SVGID_2_);">
			<g>
				<g>
					<g>
						<path style="fill:#3E3E3E;" d="M48.408,44.021c0.234,3.176,0.344,6.354,0.436,9.532c0.104,3.177,0.118,6.355,0.131,9.531
							c-0.011,3.178-0.027,6.357-0.129,9.533l-0.16,4.766c-0.094,1.588-0.149,3.178-0.277,4.766
							c-0.127-1.588-0.184-3.178-0.277-4.766l-0.16-4.766c-0.101-3.177-0.117-6.355-0.129-9.533
							c0.014-3.176,0.028-6.354,0.131-9.531C48.064,50.375,48.174,47.198,48.408,44.021z"/>
					</g>
				</g>
				<g>
					<g>
						<path style="fill:#3E3E3E;" d="M38.539,45.319c1.048,3.008,1.976,6.049,2.888,9.095c0.923,3.043,1.759,6.106,2.595,9.172
							c0.812,3.074,1.618,6.147,2.343,9.241l1.08,4.646c0.319,1.559,0.677,3.107,0.964,4.675c-0.535-1.501-1-3.021-1.502-4.531
							l-1.386-4.563c-0.924-3.043-1.761-6.107-2.593-9.174c-0.811-3.073-1.619-6.147-2.341-9.242
							C39.853,51.547,39.135,48.45,38.539,45.319z"/>
					</g>
				</g>
				<g>
					<g>
						<path style="fill:#3E3E3E;" d="M29.346,49.127c1.79,2.636,3.475,5.333,5.141,8.037c1.679,2.702,3.281,5.445,4.883,8.191
							c1.575,2.757,3.151,5.517,4.652,8.318l2.245,4.207c0.713,1.424,1.459,2.828,2.142,4.268c-0.906-1.312-1.748-2.659-2.624-3.988
							l-2.519-4.048c-1.679-2.701-3.281-5.445-4.881-8.189c-1.576-2.759-3.151-5.52-4.65-8.322
							C32.224,54.803,30.729,51.998,29.346,49.127z"/>
					</g>
				</g>
				<g>
					<g>
						<path style="fill:#3E3E3E;" d="M21.448,55.188c2.412,2.082,4.736,4.251,7.047,6.433c2.32,2.174,4.577,4.41,6.834,6.646
							c2.237,2.257,4.476,4.513,6.649,6.832l3.257,3.483c1.055,1.189,2.142,2.353,3.173,3.566c-1.215-1.031-2.376-2.117-3.567-3.173
							l-3.482-3.259c-2.32-2.174-4.577-4.409-6.834-6.647c-2.235-2.256-4.472-4.513-6.645-6.835
							C25.698,59.924,23.528,57.601,21.448,55.188z"/>
					</g>
				</g>
				<g>
					<g>
						<path style="fill:#3E3E3E;" d="M15.389,63.083c2.866,1.388,5.675,2.881,8.472,4.392c2.805,1.498,5.563,3.074,8.32,4.651
							c2.747,1.6,5.491,3.201,8.191,4.879l4.049,2.521c1.328,0.876,2.677,1.718,3.987,2.623c-1.44-0.683-2.843-1.429-4.268-2.143
							l-4.205-2.246c-2.804-1.499-5.563-3.073-8.321-4.653c-2.744-1.6-5.49-3.201-8.19-4.88
							C20.72,66.559,18.022,64.876,15.389,63.083z"/>
					</g>
				</g>
				<g>
					<g>
						<path style="fill:#3E3E3E;" d="M11.579,72.279c3.131,0.597,6.228,1.313,9.321,2.048c3.095,0.723,6.167,1.531,9.242,2.34
							c3.065,0.835,6.13,1.672,9.172,2.593l4.564,1.388c1.509,0.502,3.029,0.967,4.529,1.502c-1.568-0.286-3.117-0.646-4.676-0.965
							l-4.643-1.08c-3.097-0.723-6.17-1.531-9.242-2.341c-3.065-0.837-6.13-1.673-9.173-2.596
							C17.628,74.257,14.588,73.329,11.579,72.279z"/>
					</g>
				</g>
				<g>
					<g>
						<path style="fill:#3E3E3E;" d="M10.281,82.149c3.176-0.233,6.355-0.344,9.531-0.435c3.177-0.104,6.354-0.118,9.533-0.133
							c3.177,0.013,6.354,0.027,9.529,0.131l4.768,0.159c1.589,0.094,3.177,0.148,4.766,0.277c-1.589,0.129-3.177,0.185-4.766,0.279
							l-4.768,0.158c-3.175,0.103-6.353,0.117-9.529,0.13c-3.179-0.013-6.356-0.028-9.533-0.132
							C16.637,82.493,13.457,82.383,10.281,82.149z"/>
					</g>
				</g>
				<g>
					<g>
						<path style="fill:#3E3E3E;" d="M11.579,92.018c3.009-1.049,6.049-1.979,9.096-2.887c3.043-0.925,6.108-1.761,9.173-2.598
							c3.072-0.809,6.145-1.615,9.242-2.34l4.643-1.079c1.559-0.321,3.107-0.678,4.676-0.966c-1.5,0.535-3.021,1-4.529,1.503
							l-4.564,1.388c-3.042,0.92-6.107,1.758-9.172,2.592c-3.075,0.81-6.147,1.618-9.242,2.341
							C17.808,90.705,14.71,91.421,11.579,92.018z"/>
					</g>
				</g>
				<g>
					<g>
						<path style="fill:#3E3E3E;" d="M15.389,101.215c2.634-1.792,5.331-3.477,8.036-5.144c2.699-1.679,5.445-3.279,8.19-4.882
							c2.758-1.577,5.518-3.152,8.321-4.652l4.205-2.246c1.425-0.713,2.827-1.46,4.268-2.143c-1.311,0.906-2.659,1.749-3.987,2.625
							l-4.049,2.521c-2.7,1.678-5.444,3.28-8.191,4.88c-2.757,1.575-5.516,3.151-8.32,4.65
							C21.063,98.335,18.255,99.83,15.389,101.215z"/>
					</g>
				</g>
				<g>
					<g>
						<path style="fill:#3E3E3E;" d="M21.448,109.111c2.08-2.413,4.25-4.737,6.432-7.049c2.174-2.32,4.41-4.576,6.645-6.833
							c2.257-2.239,4.514-4.476,6.834-6.647l3.482-3.259c1.191-1.058,2.352-2.142,3.567-3.174c-1.031,1.215-2.118,2.377-3.173,3.567
							l-3.257,3.481c-2.174,2.319-4.412,4.578-6.649,6.833c-2.257,2.237-4.514,4.473-6.834,6.646
							C26.185,104.859,23.86,107.029,21.448,109.111z"/>
					</g>
				</g>
				<g>
					<g>
						<path style="fill:#3E3E3E;" d="M29.346,115.169c1.384-2.867,2.878-5.675,4.389-8.472c1.499-2.804,3.074-5.562,4.65-8.32
							c1.6-2.748,3.202-5.49,4.881-8.191l2.519-4.047c0.876-1.331,1.718-2.678,2.624-3.99c-0.683,1.441-1.429,2.845-2.142,4.268
							l-2.245,4.206c-1.501,2.803-3.077,5.563-4.652,8.321c-1.602,2.745-3.204,5.488-4.883,8.188
							C32.82,109.838,31.136,112.536,29.346,115.169z"/>
					</g>
				</g>
				<g>
					<g>
						<path style="fill:#3E3E3E;" d="M38.539,118.977c0.598-3.128,1.313-6.226,2.05-9.318c0.72-3.096,1.528-6.169,2.339-9.243
							c0.832-3.065,1.671-6.13,2.593-9.171l1.386-4.564c0.502-1.51,0.967-3.029,1.502-4.531c-0.287,1.567-0.645,3.117-0.964,4.676
							l-1.08,4.645c-0.725,3.097-1.531,6.168-2.341,9.241c-0.836,3.065-1.672,6.13-2.597,9.172
							C40.517,112.928,39.59,115.969,38.539,118.977z"/>
					</g>
				</g>
				<g>
					<g>
						<path style="fill:#3E3E3E;" d="M48.408,120.278c-0.234-3.179-0.344-6.355-0.436-9.534c-0.103-3.176-0.117-6.354-0.131-9.53
							c0.012-3.178,0.028-6.355,0.129-9.531l0.16-4.768c0.094-1.587,0.15-3.177,0.277-4.766c0.128,1.589,0.184,3.179,0.277,4.766
							l0.16,4.768c0.102,3.176,0.118,6.354,0.129,9.531c-0.013,3.177-0.027,6.354-0.131,9.53
							C48.752,113.922,48.643,117.099,48.408,120.278z"/>
					</g>
				</g>
				<g>
					<g>
						<path style="fill:#3E3E3E;" d="M58.277,118.977c-1.047-3.008-1.978-6.049-2.888-9.095c-0.922-3.042-1.757-6.106-2.594-9.172
							c-0.813-3.073-1.619-6.145-2.344-9.241l-1.08-4.645c-0.318-1.559-0.677-3.108-0.964-4.676c0.535,1.502,1,3.021,1.503,4.531
							l1.386,4.564c0.924,3.041,1.76,6.105,2.595,9.171c0.809,3.074,1.617,6.148,2.339,9.243
							C56.966,112.751,57.68,115.849,58.277,118.977z"/>
					</g>
				</g>
				<g>
					<g>
						<path style="fill:#3E3E3E;" d="M67.471,115.168c-1.792-2.635-3.476-5.332-5.142-8.037c-1.679-2.7-3.28-5.444-4.881-8.189
							c-1.577-2.758-3.152-5.517-4.651-8.319l-2.246-4.206c-0.712-1.423-1.459-2.826-2.142-4.268
							c0.906,1.313,1.749,2.659,2.624,3.989l2.52,4.047c1.678,2.701,3.278,5.444,4.879,8.189c1.576,2.759,3.153,5.519,4.65,8.321
							C64.591,109.494,66.084,112.3,67.471,115.168z"/>
					</g>
				</g>
				<g>
					<g>
						<path style="fill:#3E3E3E;" d="M75.367,109.107c-2.412-2.08-4.736-4.249-7.048-6.432c-2.319-2.174-4.576-4.409-6.833-6.645
							c-2.237-2.257-4.474-4.514-6.647-6.833l-3.257-3.481c-1.058-1.19-2.142-2.353-3.174-3.567
							c1.216,1.032,2.377,2.116,3.568,3.173l3.481,3.26c2.317,2.172,4.574,4.408,6.831,6.646c2.235,2.257,4.473,4.512,6.645,6.833
							C71.117,104.372,73.287,106.696,75.367,109.107z"/>
					</g>
				</g>
				<g>
					<g>
						<path style="fill:#3E3E3E;" d="M81.426,101.211c-2.868-1.386-5.674-2.879-8.471-4.39c-2.805-1.498-5.563-3.074-8.321-4.649
							c-2.746-1.6-5.488-3.202-8.189-4.879l-4.048-2.522c-1.328-0.874-2.677-1.718-3.988-2.623c1.44,0.683,2.844,1.429,4.268,2.142
							l4.205,2.246c2.804,1.498,5.563,3.074,8.319,4.65c2.746,1.603,5.489,3.204,8.19,4.881
							C76.098,97.735,78.792,99.418,81.426,101.211z"/>
					</g>
				</g>
				<g>
					<g>
						<path style="fill:#3E3E3E;" d="M85.238,92.015c-3.132-0.597-6.229-1.312-9.322-2.045c-3.095-0.723-6.169-1.53-9.24-2.34
							c-3.065-0.835-6.131-1.672-9.174-2.593l-4.562-1.386c-1.51-0.503-3.031-0.968-4.532-1.503
							c1.568,0.288,3.118,0.645,4.675,0.966l4.646,1.079c3.096,0.723,6.169,1.53,9.24,2.34c3.065,0.836,6.132,1.672,9.174,2.596
							C79.188,90.038,82.229,90.967,85.238,92.015z"/>
					</g>
				</g>
				<g>
					<g>
						<path style="fill:#3E3E3E;" d="M86.537,82.149c-3.179,0.234-6.355,0.344-9.532,0.435c-3.178,0.104-6.355,0.119-9.532,0.132
							c-3.179-0.013-6.354-0.027-9.531-0.13l-4.767-0.158c-1.589-0.095-3.178-0.15-4.767-0.279c1.589-0.129,3.178-0.184,4.767-0.277
							l4.767-0.159c3.178-0.104,6.353-0.118,9.531-0.131c3.177,0.015,6.354,0.028,9.532,0.133
							C80.182,81.805,83.358,81.915,86.537,82.149z"/>
					</g>
				</g>
				<g>
					<g>
						<path style="fill:#3E3E3E;" d="M85.238,72.282c-3.01,1.048-6.05,1.978-9.096,2.887c-3.042,0.923-6.108,1.759-9.174,2.596
							c-3.071,0.811-6.145,1.617-9.24,2.34l-4.646,1.081c-1.557,0.318-3.106,0.678-4.675,0.964c1.501-0.535,3.022-0.999,4.532-1.502
							l4.562-1.388c3.043-0.921,6.108-1.757,9.174-2.592c3.071-0.809,6.146-1.618,9.24-2.34
							C79.01,73.593,82.106,72.877,85.238,72.282z"/>
					</g>
				</g>
				<g>
					<g>
						<path style="fill:#3E3E3E;" d="M81.426,63.085c-2.634,1.792-5.328,3.476-8.036,5.144c-2.7,1.678-5.443,3.279-8.19,4.881
							c-2.757,1.577-5.516,3.153-8.319,4.651l-4.205,2.245c-1.424,0.714-2.827,1.46-4.268,2.143c1.312-0.905,2.66-1.747,3.988-2.623
							l4.048-2.521c2.701-1.679,5.443-3.28,8.189-4.88c2.759-1.576,5.517-3.151,8.321-4.65
							C75.752,65.964,78.558,64.471,81.426,63.085z"/>
					</g>
				</g>
				<g>
					<g>
						<path style="fill:#3E3E3E;" d="M75.367,55.188c-2.08,2.413-4.25,4.736-6.433,7.047c-2.173,2.322-4.41,4.579-6.645,6.835
							c-2.257,2.238-4.514,4.474-6.831,6.647l-3.481,3.259c-1.191,1.056-2.352,2.142-3.568,3.173
							c1.032-1.214,2.116-2.377,3.174-3.566l3.257-3.483c2.174-2.319,4.41-4.575,6.647-6.832c2.257-2.236,4.514-4.473,6.833-6.646
							C70.631,59.439,72.955,57.27,75.367,55.188z"/>
					</g>
				</g>
				<g>
					<g>
						<path style="fill:#3E3E3E;" d="M67.471,49.13c-1.387,2.868-2.88,5.674-4.39,8.471c-1.497,2.804-3.074,5.563-4.65,8.322
							c-1.601,2.745-3.201,5.488-4.879,8.189l-2.52,4.048c-0.875,1.329-1.718,2.677-2.624,3.988c0.683-1.44,1.43-2.844,2.142-4.267
							l2.246-4.207c1.499-2.802,3.074-5.561,4.651-8.319c1.601-2.746,3.202-5.489,4.881-8.188
							C63.994,54.46,65.679,51.764,67.471,49.13z"/>
					</g>
				</g>
				<g>
					<g>
						<path style="fill:#3E3E3E;" d="M58.277,45.319c-0.598,3.13-1.311,6.228-2.047,9.32c-0.722,3.095-1.53,6.169-2.339,9.242
							c-0.835,3.066-1.671,6.131-2.595,9.174l-1.386,4.563c-0.503,1.51-0.968,3.03-1.503,4.531c0.287-1.567,0.646-3.116,0.964-4.675
							l1.08-4.646c0.725-3.095,1.531-6.167,2.344-9.241c0.837-3.065,1.672-6.129,2.594-9.172
							C56.3,51.369,57.23,48.328,58.277,45.319z"/>
					</g>
				</g>
				<g>
					<g>
						<path style="fill:#3E3E3E;" d="M44.104,49.468c0.591,2.692,1.058,5.4,1.507,8.112c0.463,2.712,0.836,5.433,1.209,8.155
							c0.346,2.724,0.688,5.448,0.946,8.186l0.381,4.106c0.086,1.373,0.211,2.742,0.262,4.121c-0.307-1.345-0.541-2.699-0.814-4.048
							L46.9,74.037c-0.462-2.712-0.835-5.433-1.208-8.153c-0.344-2.726-0.688-5.451-0.943-8.188
							C44.48,54.958,44.229,52.221,44.104,49.468z"/>
					</g>
				</g>
				<g>
					<g>
						<path style="fill:#3E3E3E;" d="M35.792,51.694c1.268,2.448,2.421,4.944,3.557,7.447c1.148,2.499,2.211,5.031,3.274,7.564
							c1.041,2.542,2.079,5.085,3.036,7.664l1.431,3.866c0.438,1.306,0.912,2.596,1.318,3.913c-0.645-1.22-1.221-2.468-1.834-3.7
							l-1.722-3.746c-1.148-2.498-2.214-5.03-3.275-7.563c-1.039-2.544-2.077-5.087-3.032-7.665
							C37.578,56.902,36.628,54.322,35.792,51.694z"/>
					</g>
				</g>
				<g>
					<g>
						<path style="fill:#3E3E3E;" d="M28.34,55.998c1.858,2.037,3.618,4.148,5.363,6.273c1.755,2.115,3.438,4.286,5.121,6.457
							c1.663,2.187,3.323,4.376,4.914,6.617l2.382,3.366c0.764,1.146,1.556,2.27,2.288,3.438c-0.938-1.012-1.819-2.067-2.729-3.099
							l-2.634-3.174c-1.753-2.116-3.439-4.287-5.12-6.458c-1.662-2.188-3.322-4.376-4.913-6.618
							C31.411,60.565,29.827,58.319,28.34,55.998z"/>
					</g>
				</g>
				<g>
					<g>
						<path style="fill:#3E3E3E;" d="M22.257,62.082c2.323,1.486,4.568,3.071,6.804,4.672c2.241,1.59,4.43,3.251,6.617,4.91
							c2.172,1.684,4.343,3.368,6.458,5.123l3.172,2.634c1.033,0.909,2.09,1.79,3.101,2.729c-1.168-0.735-2.29-1.526-3.438-2.287
							l-3.365-2.383c-2.243-1.591-4.43-3.251-6.617-4.914c-2.17-1.683-4.341-3.366-6.458-5.122
							C26.407,65.699,24.293,63.94,22.257,62.082z"/>
					</g>
				</g>
				<g>
					<g>
						<path style="fill:#3E3E3E;" d="M17.953,69.536c2.628,0.834,5.209,1.785,7.779,2.751c2.579,0.956,5.122,1.992,7.666,3.031
							c2.532,1.063,5.064,2.128,7.563,3.274l3.746,1.723c1.234,0.614,2.481,1.188,3.7,1.834c-1.318-0.407-2.606-0.881-3.913-1.317
							l-3.867-1.434c-2.577-0.954-5.121-1.992-7.665-3.03c-2.532-1.065-5.062-2.13-7.56-3.276
							C22.897,71.955,20.402,70.803,17.953,69.536z"/>
					</g>
				</g>
				<g>
					<g>
						<path style="fill:#3E3E3E;" d="M15.727,77.843c2.756,0.128,5.492,0.378,8.228,0.646c2.736,0.255,5.462,0.6,8.187,0.944
							c2.722,0.372,5.443,0.746,8.152,1.207l4.064,0.694c1.352,0.272,2.705,0.506,4.05,0.813c-1.379-0.051-2.747-0.176-4.123-0.263
							l-4.104-0.381c-2.736-0.255-5.462-0.6-8.188-0.945c-2.722-0.374-5.443-0.748-8.151-1.209
							C21.131,78.904,18.421,78.437,15.727,77.843z"/>
					</g>
				</g>
				<g>
					<g>
						<path style="fill:#3E3E3E;" d="M15.727,86.45c2.694-0.591,5.404-1.058,8.115-1.506c2.708-0.462,5.43-0.835,8.151-1.207
							c2.726-0.346,5.451-0.689,8.188-0.945l4.104-0.38c1.376-0.087,2.744-0.21,4.123-0.263c-1.345,0.307-2.698,0.541-4.05,0.813
							l-4.064,0.696c-2.709,0.46-5.431,0.833-8.152,1.204c-2.726,0.344-5.451,0.688-8.187,0.945
							C21.219,86.074,18.483,86.325,15.727,86.45z"/>
					</g>
				</g>
				<g>
					<g>
						<path style="fill:#3E3E3E;" d="M17.953,94.764c2.449-1.268,4.944-2.42,7.449-3.556c2.498-1.147,5.028-2.211,7.56-3.277
							c2.544-1.038,5.088-2.075,7.665-3.031l3.867-1.432c1.307-0.437,2.595-0.912,3.913-1.319c-1.219,0.645-2.466,1.222-3.7,1.835
							l-3.746,1.724c-2.499,1.146-5.031,2.21-7.563,3.273c-2.544,1.039-5.087,2.075-7.666,3.031
							C23.162,92.98,20.581,93.93,17.953,94.764z"/>
					</g>
				</g>
				<g>
					<g>
						<path style="fill:#3E3E3E;" d="M22.257,102.216c2.036-1.859,4.15-3.619,6.272-5.362c2.117-1.756,4.288-3.439,6.458-5.122
							c2.188-1.662,4.374-3.322,6.617-4.913l3.365-2.383c1.148-0.761,2.271-1.553,3.438-2.287c-1.011,0.938-2.067,1.818-3.101,2.729
							l-3.172,2.634c-2.115,1.754-4.286,3.438-6.458,5.121c-2.188,1.66-4.376,3.321-6.617,4.909
							C26.825,99.144,24.58,100.729,22.257,102.216z"/>
					</g>
				</g>
				<g>
					<g>
						<path style="fill:#3E3E3E;" d="M28.34,108.3c1.487-2.322,3.071-4.568,4.672-6.803c1.591-2.242,3.251-4.431,4.913-6.619
							c1.681-2.171,3.367-4.34,5.12-6.457l2.634-3.172c0.91-1.032,1.792-2.089,2.729-3.101c-0.732,1.168-1.524,2.292-2.288,3.438
							l-2.382,3.366c-1.591,2.241-3.251,4.43-4.914,6.617c-1.684,2.169-3.366,4.341-5.121,6.457
							C31.958,104.151,30.198,106.264,28.34,108.3z"/>
					</g>
				</g>
				<g>
					<g>
						<path style="fill:#3E3E3E;" d="M35.794,112.602c0.834-2.627,1.785-5.208,2.751-7.779c0.957-2.577,1.993-5.121,3.032-7.664
							c1.063-2.532,2.127-5.064,3.275-7.563l1.722-3.745c0.613-1.234,1.189-2.48,1.834-3.701c-0.406,1.317-0.881,2.608-1.318,3.913
							l-1.431,3.868c-0.957,2.578-1.995,5.12-3.034,7.661c-1.065,2.533-2.128,5.065-3.274,7.564
							C38.213,107.659,37.062,110.155,35.794,112.602z"/>
					</g>
				</g>
				<g>
					<g>
						<path style="fill:#3E3E3E;" d="M44.104,114.83c0.126-2.754,0.377-5.491,0.646-8.228c0.255-2.736,0.6-5.462,0.943-8.186
							c0.373-2.723,0.746-5.443,1.208-8.155l0.693-4.063c0.273-1.349,0.508-2.704,0.814-4.049c-0.051,1.378-0.176,2.748-0.262,4.122
							l-0.381,4.105c-0.258,2.736-0.601,5.462-0.946,8.188c-0.373,2.722-0.746,5.441-1.209,8.152
							C45.161,109.428,44.694,112.137,44.104,114.83z"/>
					</g>
				</g>
				<g>
					<g>
						<path style="fill:#3E3E3E;" d="M52.711,114.83c-0.59-2.692-1.06-5.401-1.508-8.112c-0.462-2.711-0.835-5.432-1.206-8.152
							c-0.347-2.727-0.69-5.452-0.945-8.188l-0.381-4.105c-0.086-1.374-0.212-2.744-0.263-4.122c0.307,1.345,0.542,2.7,0.814,4.049
							l0.694,4.063c0.461,2.712,0.834,5.433,1.205,8.155c0.344,2.724,0.688,5.449,0.944,8.186
							C52.334,109.338,52.584,112.076,52.711,114.83z"/>
					</g>
				</g>
				<g>
					<g>
						<path style="fill:#3E3E3E;" d="M61.023,112.602c-1.269-2.447-2.42-4.943-3.555-7.446c-1.149-2.499-2.214-5.031-3.277-7.564
							c-1.039-2.541-2.076-5.083-3.033-7.661l-1.429-3.868c-0.439-1.305-0.914-2.596-1.321-3.913
							c0.646,1.221,1.222,2.467,1.835,3.701l1.722,3.745c1.148,2.499,2.212,5.031,3.274,7.563c1.038,2.543,2.077,5.087,3.032,7.664
							C59.237,107.394,60.188,109.975,61.023,112.602z"/>
					</g>
				</g>
				<g>
					<g>
						<path style="fill:#3E3E3E;" d="M68.476,108.3c-1.856-2.039-3.617-4.15-5.361-6.273c-1.755-2.116-3.44-4.287-5.122-6.458
							c-1.662-2.187-3.322-4.375-4.913-6.615l-2.385-3.366c-0.76-1.146-1.553-2.271-2.286-3.438
							c0.938,1.012,1.817,2.067,2.729,3.101l2.634,3.172c1.753,2.116,3.438,4.286,5.12,6.457c1.66,2.188,3.323,4.377,4.911,6.618
							C65.403,103.732,66.988,105.977,68.476,108.3z"/>
					</g>
				</g>
				<g>
					<g>
						<path style="fill:#3E3E3E;" d="M74.559,102.216c-2.322-1.487-4.567-3.072-6.802-4.674c-2.243-1.588-4.431-3.249-6.619-4.909
							c-2.17-1.684-4.341-3.367-6.459-5.121l-3.172-2.634c-1.031-0.911-2.088-1.791-3.099-2.729c1.169,0.734,2.29,1.526,3.438,2.287
							l3.365,2.383c2.241,1.591,4.429,3.251,6.618,4.913c2.17,1.683,4.34,3.366,6.454,5.122
							C70.409,98.597,72.521,100.357,74.559,102.216z"/>
					</g>
				</g>
				<g>
					<g>
						<path style="fill:#3E3E3E;" d="M78.862,94.764c-2.628-0.834-5.209-1.784-7.781-2.752c-2.577-0.956-5.121-1.992-7.664-3.031
							c-2.531-1.063-5.063-2.127-7.563-3.273l-3.746-1.724c-1.232-0.613-2.479-1.19-3.699-1.835
							c1.319,0.407,2.609,0.883,3.913,1.319l3.868,1.432c2.575,0.956,5.119,1.993,7.662,3.031c2.533,1.066,5.065,2.131,7.563,3.277
							C73.919,92.344,76.414,93.497,78.862,94.764z"/>
					</g>
				</g>
				<g>
					<g>
						<path style="fill:#3E3E3E;" d="M81.09,86.45c-2.755-0.125-5.492-0.376-8.227-0.643c-2.737-0.257-5.463-0.602-8.188-0.945
							c-2.722-0.371-5.443-0.744-8.153-1.204l-4.064-0.696c-1.35-0.271-2.704-0.506-4.049-0.813
							c1.379,0.053,2.748,0.176,4.121,0.263l4.107,0.38c2.736,0.256,5.462,0.6,8.187,0.945c2.722,0.372,5.443,0.745,8.154,1.207
							C75.688,85.392,78.397,85.859,81.09,86.45z"/>
					</g>
				</g>
				<g>
					<g>
						<path style="fill:#3E3E3E;" d="M81.09,77.843c-2.692,0.594-5.402,1.061-8.112,1.508c-2.711,0.461-5.433,0.835-8.154,1.209
							c-2.726,0.346-5.451,0.691-8.187,0.945l-4.107,0.381c-1.373,0.087-2.742,0.212-4.121,0.263
							c1.345-0.308,2.699-0.541,4.049-0.813l4.064-0.694c2.71-0.461,5.432-0.835,8.153-1.207c2.726-0.345,5.451-0.689,8.188-0.944
							C75.598,78.221,78.335,77.971,81.09,77.843z"/>
					</g>
				</g>
				<g>
					<g>
						<path style="fill:#3E3E3E;" d="M78.862,69.536c-2.448,1.268-4.943,2.42-7.448,3.556c-2.497,1.146-5.029,2.211-7.563,3.276
							c-2.543,1.038-5.087,2.076-7.662,3.03l-3.868,1.434c-1.304,0.437-2.594,0.91-3.913,1.317c1.22-0.646,2.467-1.22,3.699-1.834
							l3.746-1.723c2.5-1.146,5.032-2.211,7.563-3.274c2.543-1.039,5.087-2.075,7.664-3.031
							C73.653,71.321,76.234,70.37,78.862,69.536z"/>
					</g>
				</g>
				<g>
					<g>
						<path style="fill:#3E3E3E;" d="M74.559,62.083c-2.037,1.858-4.149,3.617-6.274,5.361C66.17,69.2,64,70.882,61.83,72.565
							c-2.189,1.663-4.377,3.324-6.618,4.914l-3.365,2.383c-1.148,0.761-2.27,1.553-3.438,2.287
							c1.011-0.938,2.067-1.819,3.099-2.729l3.172-2.634c2.118-1.754,4.289-3.439,6.459-5.12c2.188-1.66,4.376-3.322,6.619-4.911
							C69.991,65.154,72.236,63.569,74.559,62.083z"/>
					</g>
				</g>
				<g>
					<g>
						<path style="fill:#3E3E3E;" d="M68.476,55.998c-1.487,2.321-3.072,4.567-4.673,6.803c-1.588,2.242-3.251,4.431-4.911,6.618
							c-1.683,2.171-3.367,4.342-5.12,6.458l-2.634,3.174c-0.912,1.031-1.791,2.087-2.729,3.099
							c0.733-1.168,1.526-2.292,2.286-3.438l2.385-3.366c1.591-2.241,3.249-4.431,4.913-6.617c1.683-2.171,3.367-4.342,5.122-6.457
							C64.858,60.146,66.619,58.035,68.476,55.998z"/>
					</g>
				</g>
				<g>
					<g>
						<path style="fill:#3E3E3E;" d="M61.023,51.694c-0.835,2.628-1.786,5.208-2.752,7.78c-0.955,2.578-1.994,5.121-3.032,7.665
							c-1.063,2.533-2.126,5.065-3.274,7.563l-1.722,3.746c-0.613,1.232-1.189,2.48-1.835,3.7c0.407-1.317,0.882-2.607,1.321-3.913
							l1.429-3.866c0.957-2.579,1.994-5.122,3.033-7.664c1.063-2.533,2.129-5.065,3.277-7.564
							C58.604,56.638,59.755,54.142,61.023,51.694z"/>
					</g>
				</g>
				<g>
					<g>
						<path style="fill:#3E3E3E;" d="M52.711,49.468c-0.127,2.752-0.377,5.49-0.645,8.226c-0.256,2.738-0.6,5.464-0.944,8.189
							c-0.371,2.721-0.744,5.441-1.205,8.153l-0.694,4.064c-0.272,1.349-0.508,2.703-0.814,4.048
							c0.051-1.379,0.177-2.748,0.263-4.121l0.381-4.106c0.255-2.737,0.599-5.462,0.945-8.188c0.371-2.72,0.744-5.441,1.206-8.152
							C51.651,54.869,52.121,52.161,52.711,49.468z"/>
					</g>
				</g>
			</g>
			<g>
				<path style="fill:#FFFFFF;" d="M69.667,40.27c-0.943-0.625-2.067-0.995-3.272-0.995c-0.129,0-0.26,0.004-0.392,0.012
					c-1.582,0.105-3.032,0.82-4.081,2.016c-1.047,1.196-1.566,2.728-1.464,4.309c0.102,1.557,0.804,2.946,1.866,3.946
					c-0.451,0.567-0.982,1.112-1.537,1.415c-0.45,0.248-0.863,0.514-1.231,0.774c-0.195-2.619-2.565-4.878-3.35-5.557
					c-0.304-1.532-1.176-2.711-2.504-3.5l-0.021-0.03l-0.167-0.091c-0.073-0.04-0.154-0.062-0.229-0.099
					c-0.162-0.08-0.32-0.166-0.492-0.235c-0.74-0.648-1.622-0.966-2.481-1.273c-0.279-0.099-0.551-0.201-0.818-0.308
					c0.084-0.251,0.141-0.481,0.17-0.661c0.064,0.003,0.131,0.006,0.203,0.01c0.074,0.004,0.143,0.007,0.223,0.013
					c0.072,0.005,0.152,0.005,0.225,0.01c0.158,0.009,0.313,0.021,0.473,0.025v-0.004c0.098,0.003,0.191,0.012,0.287,0.012
					c0.562,0,0.983-0.062,1.329-0.194c0.504-0.192,0.861-0.543,1.033-1.015c0.234-0.646,0.045-1.297-0.098-1.645
					c0.006-0.004,0.01-0.009,0.016-0.015c0.349-0.331,0.438-0.756,0.361-1.142c0.094-0.185,0.143-0.403,0.111-0.655
					c0.577-0.219,0.795-0.589,0.874-0.866c0.202-0.697-0.256-1.341-0.786-1.996c-0.458-0.567-0.568-1.076-0.436-1.269
					c0.473-0.695,0.25-1.356,0.086-1.837c-0.08-0.233-0.153-0.452-0.172-0.689c-0.053-0.646-0.277-1.341-0.572-1.917
					c0.795-1.686-0.348-3.954-0.495-4.237l-1.017-1.919l-0.474,2.119c-0.096,0.425-1.763,0.425-2.392,0.425l-1.545-0.008
					c-1.063,0-2.32,0.03-3.566,0.255c-1.508,0.273-2.704,1.122-3.466,2.457c-1.032,1.814-1.052,4.235-0.546,5.592
					c0.127,0.341,0.274,0.697,0.426,1.063c0.417,1.006,0.86,2.104,0.981,3.124l-0.43-0.131l0.396,1.251
					c-0.007,0.032-0.011,0.063-0.019,0.096c-0.362,0.492-0.801,0.781-1.419,0.957l-0.137,0.035c-0.26,0.068-0.559,0.112-0.861,0.147
					c-0.06,0.008-0.121,0.016-0.185,0.022c-0.296,0.03-0.598,0.053-0.879,0.069L37.1,38.144c-0.282,0.016-0.581,0.03-0.906,0.045
					l-0.332,0.016c-0.292,0.013-0.566,0.056-0.839,0.097l-0.257,0.02L34.76,38.25l-0.153,0.083l-0.069,0.006l0.029,0.017
					l-0.086,0.046c-2.325,0.524-3.869,1.952-4.434,2.48l-0.867,0.811l0.168,0.078c-0.766,0.961-1.55,2.326-2.339,4.358
					c-0.622,0.313-2.038,1.093-2.839,2.087c-0.619,0.763-1.036,2.129-1.405,3.332c-0.195,0.636-0.463,1.506-0.615,1.705
					c-0.07,0.087-0.174,0.194-0.297,0.322c-0.87,0.919-2.909,3.07-1.327,6.17c0.756,1.482,2.889,3.821,5.148,6.298
					c1.177,1.291,2.428,2.662,3.443,3.883c-1.185,1.17-1.879,2.826-1.763,4.617c0.207,3.114,2.811,5.556,5.935,5.556
					c0.018,0,0.034-0.002,0.051-0.002c0.488,0.14,0.992,0.236,1.521,0.236c0.124,0,0.246-0.004,0.37-0.012
					c1.334-0.086,2.513-0.654,3.423-1.499c0.01,0.011,0.018,0.024,0.025,0.037c-0.512,2.557-0.883,6.03-0.383,9.812
					c0.104,0.808,0.205,1.509,0.295,2.121c0.387,2.661,0.419,3.217-0.09,3.607c-1.38,1.068-4.15,5.737-4.529,10.167
					c-0.34,3.993-1.833,4.354-1.849,4.357c-0.383,0.046-2.063,0.513-2.696,1.795c-0.262,0.528-0.438,1.388,0.208,2.484
					c1.125,1.909,1.512,2.835,2.049,4.115l0.152,0.369c0.457,1.083,1.284,1.609,2.528,1.609c0.49,0,1.011-0.071,1.612-0.152
					l0.602-0.08c2.517-0.31,3.098-0.725,3.253-1.339c0.038-0.154,0.12-0.686-0.451-1.095c-0.473-0.338-1.23-0.424-2.249-0.507
					c-0.123-0.011-0.236-0.019-0.336-0.026c-0.291-0.758-0.867-2.499-0.922-3.032c0.346-0.688,2.058-3.719,3.116-4.794
					c1.275-1.301,3.928-5.439,4.082-5.691c0.844-1.697,2.362-4.608,2.854-5.186c1.409-1.665,2.177-2.864,2.708-4.364
					c0.016,0.011,0.027,0.025,0.042,0.038c0.338,0.276,0.656,0.741,0.932,1.354c-0.502,1.722-1.325,7.899,1.027,11.947
					c2.272,3.906,1.884,6.438,1.786,6.89l-0.057,0.247c-0.246,1.044-0.704,2.984,0.277,4.34c0.473,0.663,1.211,1.057,2.13,1.139
					c0.462,0.041,0.92,0.063,1.385,0.063c0.336,0,0.673-0.011,1.022-0.033c0.713-0.048,1.341-0.134,2.082-0.236
					c0.505-0.07,0.989-0.139,1.471-0.17c2.084-0.137,3.46-0.227,3.769-1.395c0.098-0.369,0.117-1.08-0.811-1.684
					c-0.644-0.419-1.397-0.641-2.187-0.641c-0.1,0-0.193,0.003-0.278,0.009c-0.083,0.005-0.161,0.012-0.23,0.021
					c-0.613-0.298-1.925-0.929-2.782-1.356c-0.432-0.934-0.355-5.639-0.33-7.24l0.02-1.513c0.011-1.155,0.16-2.368,0.309-3.552
					c0.287-2.32,0.586-4.722-0.127-7.01c-0.362-1.165-0.709-2.864-1.148-5.014l-0.027-0.139c-0.5-2.446-1.134-5.535-2.069-9.333
					l0.127,0.1l-0.984-3.451c-0.002-0.003-0.012-0.037-0.017-0.06c-0.008-0.028-0.016-0.059-0.024-0.088
					c-0.139-0.515-0.612-2.368-0.646-3.843l-0.109-4.518l0.25-0.833l-0.01,0.004c0.143-0.489,0.301-1.035,0.468-1.613l0.412-0.883
					l-0.137-0.085c0.105-0.365,0.208-0.736,0.312-1.104c0.05-0.084,0.101-0.192,0.126-0.326c0.047-0.244,0.152-0.599,0.277-1.031
					c0.057-0.195,0.119-0.413,0.184-0.639l0.316,0.374l0.01-0.039c1.372,1.474,2.667,2.557,3.359,2.557
					c0.37,0,0.693-0.189,0.867-0.511c0.229-0.427,0.848-1.317,1.564-2.351c0.771-1.11,1.73-2.491,2.588-3.85
					c1.317-2.084,3.306-5.184,4.08-6.391c0.024,0.001,0.047,0.007,0.071,0.007c0.122,0,0.246-0.004,0.37-0.013
					c3.085-0.204,5.43-2.88,5.228-5.964C73.37,42.88,71.783,40.969,69.667,40.27z M33.262,55.351
					c0.022,0.015,0.041,0.038,0.065,0.051c0.757,2.46,2.151,5.686,4.858,8.044c0.024,0.024,1.976,2.22,1.705,4.556l-0.222-0.05
					l-0.382,0.899c-0.242,0.575-0.447,1.156-0.635,1.746c-0.478-0.438-1.029-0.793-1.636-1.047c-0.517-0.42-1.098-0.757-1.733-0.985
					c-0.598-1.586-1.299-3.536-1.559-4.656c-0.686-2.967-1.964-4.426-2.991-5.6c-0.146-0.166-0.289-0.329-0.425-0.491
					C31.072,57.319,32.247,56.451,33.262,55.351z"/>
			</g>
			<g>
				<g>
					<path style="fill:#1B5E71;" d="M40.628,74.83c0,0-2.518,6.304-1.538,13.735c0.568,4.349,1.033,5.594-0.098,6.467
						c-1.133,0.875-3.856,5.335-4.223,9.6c-0.361,4.263-2.058,5.026-2.548,5.084c-0.486,0.06-3.153,0.943-1.896,3.079
						c1.257,2.136,1.618,3.076,2.251,4.579c0.632,1.505,1.929,1.139,3.904,0.894c1.979-0.243,2.978-0.599,2.431-0.987
						c-0.547-0.394-2.569-0.326-2.69-0.492c-0.121-0.169-1.326-3.507-1.131-3.941c0.191-0.438,2.095-3.885,3.327-5.138
						c1.232-1.256,3.938-5.485,3.938-5.485s2.223-4.481,2.96-5.348c1.791-2.117,2.513-3.408,3.071-5.918
						c0.975-4.389-0.213-7.28-0.213-7.28l-1.763-4.429L40.628,74.83z"/>
				</g>
				<g>
					<path style="fill:#1B5E71;" d="M51.688,26.549c0.403,0.387,0.836,1.375,0.906,2.254c0.07,0.884,0.624,1.422,0.223,2.012
						c-0.403,0.589-0.141,1.462,0.477,2.224c0.683,0.843,0.956,1.368,0.203,1.624c-0.752,0.251-0.641,0.2-0.606,0.402
						c0.038,0.197,0.362,0.5-0.097,0.856c0,0,0.33,0.386,0.01,0.689c-0.318,0.305-0.457,0.432-0.271,0.759
						c0.18,0.326,0.525,1.388-0.414,1.748c-0.94,0.361-2.837-0.115-3.086,0.16c-0.252,0.275,0.033,1.149-0.963,2.231
						c-1.001,1.083-1.001,1.564-1.001,1.564s-5.832,0.176-7.905-2.857c0,0,2.56-2.807,2.358-3.444c0,0,1.065,0.326,0.992-0.215
						c0,0,0.569-0.636,0.446-1.031c0,0,0.338-0.945-0.021-1.404c0,0,0.169-0.415-0.063-0.74c-0.232-0.324-0.415-0.625-0.444-1.176
						c-0.026-0.55,2.596-2.351,2.705-2.574c0.106-0.221,0.609-0.655,0.451-0.958c-0.155-0.303-0.078-0.499,0.111-0.629
						C45.888,27.915,51.688,26.549,51.688,26.549z"/>
				</g>
				<g>
					<path style="fill:#1B5E71;" d="M41.419,37.254c0.574-1.961-0.676-4.229-1.349-6.03c-0.672-1.798-0.322-6.307,3.404-6.979
						c3.73-0.675,7.747,0.473,8.142-1.286c0,0,1.392,2.629,0.202,3.946c0,0-4.606,1.444-4.901,6.043l-0.895,0.143
						c0,0,0.18-2.2-1.041-2.134c-1.155,0.06-0.511,1.375-0.623,1.963c-0.118,0.583-0.934,1.561,0.323,1.59
						c0,0,0.271,0.955-1.732,2.075C42.029,37.104,41.419,37.254,41.419,37.254z"/>
				</g>
				<g>
					<path style="fill:#FFFFFF;" d="M50.812,39.253c-0.028-0.001-1.994-0.243-3.382-1.178c-1.558-1.052-1.991-2.597-1.991-2.597
						s0.721,2.747,3.593,3.799c0.045-0.277-0.102,0.109,0,0C49.188,39.101,49.997,39.228,50.812,39.253z"/>
				</g>
				<g>
					<path style="fill:#1B5E71;" d="M49.039,42.375c2.594,0.016,5.931,0.831,6.429,4.242c0,0,4.779,3.778,2.824,7.261
						c0,0,1.148-1.248,2.881-2.202c1.731-0.948,3.053-3.563,3.053-3.563l3.282,2.126c0,0-2.749,4.273-4.412,6.908
						c-1.666,2.636-3.671,5.296-4.181,6.251c-0.515,0.949-6.74-6.042-7.67-9.057C50.309,51.325,49.039,42.375,49.039,42.375z"/>
				</g>
				<g>
					<path style="fill:#FFFFFF;" d="M53.133,43.275c-1.237-0.669-2.761-0.892-4.094-0.9c0,0,1.269,8.95,2.206,11.966
						c0.44,1.432,2.076,3.754,3.725,5.7c0.109-0.457,0.215-0.938,0.299-1.453c0.117-0.763,0.17-1.447,0.162-2.096
						c-0.018-1.329-0.203-2.743-0.369-3.991c-0.168-1.27-0.311-2.366-0.232-2.981C55.001,48.19,54.308,44.96,53.133,43.275z"/>
				</g>
				<g>
					<path style="fill:#1B5E71;" d="M54.462,49.47c0.168-1.303-0.556-4.614-1.743-6.155c-1.184-1.541-3.232-1.444-4.947-2.666
						l-4.867-0.279c-0.109-1.029-0.559-4.5-1.485-3.117c-1.086,1.611-2.724,1.62-5.521,1.749c-2.796,0.127-4.656,1.854-5.304,2.462
						l0.368,0.172c-0.319,0.441-0.611,0.982-0.863,1.682c0,0,0.261,12.236,2.979,8.447c0.313-1.446,0.392,6.508,5.701,11.141
						c0,0,2.929,3.215,1.589,6.399c0,0,7.188,1.554,11.672-0.357c0,0,0.905-3.044,1.709-5.915c0.031-0.037,0.061-0.072,0.071-0.121
						c0.143-0.74,0.761-2.417,1.066-4.31c0.006-0.021,0.012-0.05,0.016-0.067c0-0.001,0-0.005,0-0.006
						c0.104-0.665,0.168-1.35,0.158-2.033C55.022,53.829,54.295,50.775,54.462,49.47z"/>
				</g>
				<g>
					<path style="fill:#1B5E71;" d="M39.992,39.091c-0.233-0.128-0.447-0.277-0.672-0.417c-0.588,0.151-1.283,0.218-2.084,0.262
						c0.079,0.041,0.153,0.088,0.23,0.123c0.715,0.34,1.443,0.614,2.176,0.848c1.474,0.465,2.966,0.758,4.461,0.95
						C42.678,40.381,41.288,39.799,39.992,39.091z"/>
				</g>
				<g>
					<path style="fill:#FFFFFF;" d="M54.599,51.829c-0.469-0.093-0.962-0.063-1.405,0.056c-0.383,0.104-0.744,0.251-1.09,0.43
						c-0.268-1.1-0.647-2.165-1.097-3.19c-0.551-1.238-1.186-2.429-1.91-3.56c-0.831-1.064-1.688-2.104-2.669-3.018
						c0.722,1.125,1.396,2.264,1.982,3.447c0.685,1.116,1.319,2.266,1.843,3.459c0.398,0.906,0.74,1.838,0.99,2.787
						c-0.666,0.12-1.488-0.001-2.306,0.045c-0.443,0.028-0.918,0.087-1.357,0.308c-0.221,0.108-0.427,0.263-0.586,0.449
						c-0.141,0.162-0.281,0.344-0.409,0.519c-0.51,0.706-0.953,1.429-1.455,2.117c-0.505,0.675-1.034,1.366-1.786,1.793
						c0.788-0.359,1.396-1.02,1.96-1.658c0.564-0.645,1.08-1.341,1.63-1.976c0.141-0.16,0.274-0.304,0.424-0.451
						c0.132-0.136,0.281-0.231,0.453-0.299c0.336-0.14,0.732-0.168,1.142-0.159c0.773-0.004,1.549,0.206,2.473,0.104
						c0.011,0.04,0.024,0.079,0.03,0.119c0.279,1.27,0.273,2.542,0.204,3.866c-0.032,0.711-0.079,1.418-0.139,2.124
						c-0.668,0.247-1.344,0.482-2.021,0.68c-0.195,0.057-0.394,0.106-0.583,0.138c-0.185,0.009-0.456,0.066-0.634,0.17
						c-0.381,0.198-0.707,0.463-1.008,0.744c0.342-0.227,0.707-0.43,1.084-0.551c0.205-0.065,0.35-0.079,0.574-0.055
						c0.227,0.001,0.432-0.018,0.646-0.04c0.629-0.076,1.247-0.185,1.864-0.295c-0.131,1.406-0.306,2.809-0.505,4.208l-0.086-0.248
						c-0.6,0.272-1.214,0.543-1.827,0.765c-0.153,0.054-0.311,0.105-0.45,0.133c-0.081,0.005-0.171,0.017-0.277,0.059
						c-0.089,0.032-0.171,0.074-0.241,0.125c-0.295,0.196-0.535,0.437-0.753,0.687c0.263-0.201,0.55-0.386,0.847-0.504
						c0.068-0.028,0.144-0.05,0.215-0.061c0.055-0.008,0.133-0.007,0.223,0.001c0.189,0.004,0.355-0.017,0.531-0.039
						c0.589-0.083,1.159-0.203,1.735-0.332c-0.008,0.056-0.018,0.113-0.021,0.17c-0.2,1.311-0.411,2.619-0.666,3.915
						c-0.021,0.263-0.056,0.523-0.081,0.787c0.266-0.059,0.523-0.126,0.775-0.2c0.041-0.144,0.084-0.289,0.131-0.434
						c0.229-1.316,0.46-2.626,0.656-3.945c0.012-0.072,0.018-0.151,0.028-0.224c0.476,0.151,0.951,0.302,1.424,0.471l0.176-0.376
						c-0.488-0.303-0.986-0.597-1.486-0.89c0.188-1.33,0.35-2.667,0.477-4.008c0.4,0.148,0.809,0.287,1.232,0.4
						c0.159,0.041,0.304,0.084,0.505,0.088c0.124-0.005,0.22,0.04,0.358,0.117c0.141,0.091,0.24-0.05,0.123-0.159
						c-0.101-0.106-0.275-0.236-0.461-0.266c-0.106-0.03-0.253-0.098-0.383-0.161c-0.442-0.236-0.876-0.513-1.302-0.791
						c0.063-0.723,0.111-1.444,0.141-2.163c0.028-0.677,0.055-1.332,0.033-2.029c-0.029-0.649-0.109-1.291-0.232-1.927
						c0.706-0.503,1.572-0.881,2.389-0.73C54.644,52.183,54.621,52.002,54.599,51.829z"/>
				</g>
				<g>
					<path style="fill:#3E3E3E;" d="M37.754,60.306c-0.004,0-0.008-0.003-0.012-0.005c0.209,0.151,0.422,0.301,0.646,0.457
						C38.244,60.63,38.037,60.478,37.754,60.306z"/>
				</g>
				<g>
					<path style="fill:#1B5E71;" d="M34.09,39.53c-2.022,1.108-4.128,1.015-6.446,7.182c0,0-1.932,0.866-2.851,2.008
						c-0.922,1.137-1.45,4.304-2.011,5.022c-0.564,0.726-3.091,2.607-1.545,5.639c1.545,3.028,9.916,10.621,10.701,13.358
						l3.58-1.362c0,0-2.067-5.105-2.574-7.288c-0.872-3.764-2.703-4.863-3.814-6.487c0,0,4.344-2.41,5.16-5.455
						C35.105,49.1,34.09,39.53,34.09,39.53z"/>
				</g>
				<g>
					<g>
						
							<ellipse transform="matrix(0.9979 -0.0655 0.0655 0.9979 -2.8389 4.5457)" style="fill:#FFFFFF;" cx="67.925" cy="45.58" rx="4.809" ry="4.809"/>
					</g>
					<g>
						
							<ellipse transform="matrix(0.9979 -0.0654 0.0654 0.9979 -2.834 4.5372)" style="fill:#3E3E3E;" cx="67.924" cy="45.58" rx="4.509" ry="4.509"/>
					</g>
					<g>
						
							<ellipse transform="matrix(0.9978 -0.0655 0.0655 0.9978 -2.8212 4.4486)" style="fill:#FFFFFF;" cx="66.393" cy="45.224" rx="5.147" ry="5.148"/>
					</g>
					<g>
						
							<ellipse transform="matrix(0.9979 -0.0654 0.0654 0.9979 -2.8148 4.4377)" style="fill:#1B5E71;" cx="66.392" cy="45.224" rx="4.847" ry="4.848"/>
					</g>
				</g>
				<g>
					<path style="fill:#FFFFFF;" d="M57.125,118.214c-0.778,0.05-1.522,0.041-2.278-0.028c-0.692-0.062-1.214-0.332-1.556-0.807
						c-0.766-1.06-0.363-2.769-0.148-3.69l0.061-0.244c0.11-0.519,0.55-3.31-1.874-7.479c-2.283-3.927-1.348-10.221-0.902-11.477
						c0.016-0.037,0.024-0.075,0.033-0.114c-0.354-0.877-0.783-1.526-1.275-1.928c-2.474-2.039-3.254-4.262-3.944-6.225
						c-0.566-1.61-1.053-3-2.349-4.047c-3.642-2.933-5.072-5.534-4.253-7.731l0.089-0.239c0,0,12.125-0.107,12.139-0.109
						c0.294-0.019,0.5-0.014,0.681-0.003l0.941-0.007l0.037,0.246l0.104,0.165c1.795,6.429,2.778,11.256,3.498,14.78
						c0.454,2.225,0.811,3.982,1.191,5.208c0.662,2.127,0.373,4.442,0.098,6.684c-0.15,1.195-0.305,2.432-0.314,3.635l-0.019,1.508
						c-0.043,2.626-0.122,7.515,0.65,7.905c0.972,0.488,2.679,1.31,3.139,1.531c0.096-0.018,0.234-0.041,0.405-0.052
						c0.499-0.032,1.245,0.027,1.974,0.504c0.146,0.094,0.587,0.382,0.476,0.811c-0.145,0.555-0.993,0.663-3.044,0.798
						c-0.521,0.034-1.041,0.107-1.585,0.182C58.481,118.078,57.836,118.166,57.125,118.214L57.125,118.214z"/>
				</g>
				<g>
					<path style="fill:#1B5E71;" d="M63.047,116.511c-1.078-0.707-2.217-0.371-2.217-0.371s-2.131-1.022-3.264-1.592
						c-1.135-0.57-0.865-6.267-0.835-9.746c0.028-3.488,1.218-7.047,0.234-10.207c-0.982-3.161-1.74-9.425-4.692-19.998
						c0,0-0.038-0.01-0.087-0.023l-0.016-0.114l-0.653,0.005c-0.205-0.016-0.443-0.015-0.697,0.006l-11.835,0.104
						c-0.846,2.267,1.106,4.871,4.137,7.314c3.032,2.444,1.907,6.651,6.298,10.271c0.603,0.495,1.064,1.26,1.426,2.182
						c-0.019,0.089-0.037,0.18-0.068,0.273c-0.328,0.922-1.443,7.187,0.871,11.163c2.313,3.978,2.112,6.828,1.913,7.744
						c-0.196,0.914-1.15,4.072,1.317,4.297c2.463,0.224,4.105-0.271,5.777-0.38C62.324,117.329,64.122,117.211,63.047,116.511z"/>
				</g>
				<g>
					<path style="fill:#FFFFFF;" d="M52.629,77.034c-2.475-1.922-8.065-1.865-11.178-1.66c-1.559,0.102-2.635,0.249-2.645,0.25
						l-0.479,0.066l0.059-0.479c0.227-1.808,0.84-3.782,0.864-3.862c0.222-0.761,0.477-1.479,0.774-2.188l0.12-0.282l0.301,0.066
						c0.035,0.006,3.669,0.782,7.302,0.54c1.638-0.108,3.033-0.402,4.145-0.877l0.503-0.214l0.098,4.047
						c0.041,1.822,0.711,4.174,0.719,4.196l0.311,1.092L52.629,77.034z"/>
				</g>
				<g>
					<path style="fill:#FFFFFF;" d="M51.894,68.608c-1.112,0.475-2.508,0.769-4.145,0.877c-3.435,0.227-6.862-0.451-7.261-0.532
						c-0.037,0.118-0.07,0.235-0.119,0.354c0,0,7.188,1.554,11.672-0.357c0,0,0.052-0.176,0.137-0.462L51.894,68.608z"/>
				</g>
				<g>
					<path style="fill:#1B5E71;" d="M52.125,72.459c0-0.004-0.002-0.006-0.002-0.009l-0.083-3.501
						c-4.483,1.911-11.672,0.357-11.672,0.357c-0.326,0.77-0.569,1.495-0.763,2.154l0,0c0,0-0.627,2.001-0.85,3.797
						c0,0,10.339-1.434,14.1,1.483C52.855,76.741,52.168,74.342,52.125,72.459z"/>
				</g>
				<g>
					<path style="fill:#FFFFFF;" d="M33.563,53.813c0,0,4.513-2.513,4.009-6.107c0,0,1.422,3.177-3.576,6.892
						C33.355,55.074,33.563,53.813,33.563,53.813z"/>
				</g>
				<g>
					<g>
						
							<ellipse transform="matrix(0.9978 -0.0657 0.0657 0.9978 -4.8339 2.452)" style="fill:#FFFFFF;" cx="34.864" cy="74.723" rx="4.811" ry="4.808"/>
					</g>
					<g>
						
							<ellipse transform="matrix(0.9979 -0.0655 0.0655 0.9979 -4.8205 2.4446)" style="fill:#3E3E3E;" cx="34.864" cy="74.722" rx="4.51" ry="4.508"/>
					</g>
					<g>
						
							<ellipse transform="matrix(0.9979 -0.0654 0.0654 0.9979 -4.7758 2.3348)" style="fill:#FFFFFF;" cx="33.292" cy="74.15" rx="5.148" ry="5.146"/>
					</g>
					<g>
						<g>
							
								<ellipse transform="matrix(0.9979 -0.0654 0.0654 0.9979 -4.7769 2.3353)" style="fill:#1B5E71;" cx="33.291" cy="74.15" rx="4.847" ry="4.847"/>
						</g>
					</g>
				</g>
			</g>
		</g>
	</g>
</g>
</svg>
